<?xml version="1.0" encoding="utf-8"?>
<!-- Generator: Adobe Illustrator 16.0.4, SVG Export Plug-In . SVG Version: 6.00 Build 0)  -->
<!DOCTYPE svg PUBLIC "-//W3C//DTD SVG 1.1//EN" "http://www.w3.org/Graphics/SVG/1.1/DTD/svg11.dtd">
<svg version="1.1" id="Layer_1" xmlns="http://www.w3.org/2000/svg" xmlns:xlink="http://www.w3.org/1999/xlink" x="0px" y="0px"
	 width="553px" height="121px" viewBox="0 0 553 121" enable-background="new 0 0 553 121" xml:space="preserve">
<g>
	<g>
		<defs>
			<path id="SVGID_1_" d="M58.762,6.519c-2.287,0.009-4.568,0.271-6.795,0.796c-15.722,3.704-25.551,13.457-29.07,29.401
				c-0.61,2.768-1.021,5.602-0.708,8.427c0.099,0.89,1.358,0.971,1.568,0.101c0.002-0.01,0.005-0.021,0.007-0.031
				c3.846-15.878,16.961-27.573,33.894-27.301c13.062,0.211,40.731,0.079,45.784,0.053c0.441-0.003,0.801,0.354,0.801,0.797v18.11
				c0,0.441-0.358,0.799-0.8,0.796c-4.87-0.021-30.73-0.139-43.194-0.124c-2.578,0.003-5.156,0.146-7.688,0.636
				c-19.701,3.806-32.365,21.163-30.029,41.194c2.409,20.668,19.301,34.195,40.8,34.195l38.972,0.158
				c10.484,0,12.86-2.062,12.86-11.062l0.105-21.753c0-8.474-0.493-11.296-8.072-11.296l-39.36-0.006
				c-4.325,0-13.389,0.782-23.141-4.92c-0.564-0.33-1.265,0.124-1.194,0.775c0.51,4.748,2.24,8.31,5.633,11.018
				c4.278,3.415,9.373,4.382,14.686,4.397c12.283,0.036,24.566,0.011,36.85,0.011h2.656c0.439,0,0.796,0.356,0.796,0.797v17.99
				c0,0.436-0.35,0.791-0.785,0.797l-0.56,0.008c-14.798,0.01-29.602,0.251-44.393-0.063c-12.956-0.275-23.909-11.038-24.74-23.599
				C32.629,61.47,44.466,48.846,59.891,48.839c6.929-0.003,13.858-0.002,20.787-0.001c8.739,0.001,17.479,0.003,26.219-0.004
				c5.884-0.005,8.572-2.654,8.576-8.403c0.007-8.858,0.001-17.717,0.002-26.575c0-4.066-3.295-7.363-7.361-7.364
				c-8.125-0.004-16.247-0.012-24.371-0.012C75.416,6.479,67.088,6.488,58.762,6.519"/>
		</defs>
		<clipPath id="SVGID_2_">
			<use xlink:href="#SVGID_1_"  overflow="visible"/>
		</clipPath>
		
			<linearGradient id="SVGID_3_" gradientUnits="userSpaceOnUse" x1="-2150.2163" y1="1889.0693" x2="-2150.0698" y2="1889.0693" gradientTransform="matrix(593.8745 593.8745 593.8745 -593.8745 155117.0312 2398851)">
			<stop  offset="0" style="stop-color:#A8218D"/>
			<stop  offset="0.0528" style="stop-color:#A8218D"/>
			<stop  offset="0.1985" style="stop-color:#CE549E"/>
			<stop  offset="0.3945" style="stop-color:#EAB0D0"/>
			<stop  offset="0.5226" style="stop-color:#E08FBC"/>
			<stop  offset="0.6407" style="stop-color:#D773AC"/>
			<stop  offset="0.7513" style="stop-color:#CA4397"/>
			<stop  offset="0.8367" style="stop-color:#C73793"/>
			<stop  offset="0.9422" style="stop-color:#C13C95"/>
			<stop  offset="1" style="stop-color:#C13C95"/>
		</linearGradient>
		<polygon clip-path="url(#SVGID_2_)" fill="url(#SVGID_3_)" points="67.837,-41.162 169.103,60.104 67.837,161.368 -33.428,60.104 
					"/>
	</g>
	<g>
		<path fill="#231F20" stroke="#231F20" stroke-width="2" stroke-miterlimit="10" d="M164.004,113.572
			c-5.989,0-11.23-1.023-15.721-3.069s-8.232-4.863-11.227-8.456c-2.993-3.594-5.216-7.835-6.662-12.726
			c-1.446-4.889-2.17-10.178-2.17-15.867s0.724-10.979,2.17-15.87c1.446-4.889,3.669-9.129,6.662-12.723
			c2.994-3.593,6.736-6.436,11.227-8.532s9.731-3.145,15.721-3.145c5.987,0,11.226,1.048,15.717,3.145
			c4.49,2.097,8.234,4.939,11.228,8.532c2.994,3.594,5.214,7.834,6.66,12.723c1.446,4.892,2.172,10.181,2.172,15.87
			s-0.726,10.979-2.172,15.867c-1.446,4.891-3.666,9.132-6.66,12.726c-2.993,3.593-6.737,6.41-11.228,8.456
			C175.229,112.549,169.991,113.572,164.004,113.572z M164.004,101.747c6.885,0,11.975-2.495,15.268-7.484
			c3.294-4.989,4.941-11.927,4.941-20.809c0-8.883-1.647-15.794-4.941-20.733c-3.293-4.938-8.383-7.411-15.268-7.411
			c-6.889,0-11.954,2.473-15.197,7.411c-3.242,4.939-4.863,11.851-4.863,20.733c0,8.882,1.621,15.819,4.863,20.809
			C152.05,99.252,157.115,101.747,164.004,101.747z"/>
		<path fill="#231F20" stroke="#231F20" stroke-width="2" stroke-miterlimit="10" d="M217.897,97.854
			c2.694,1.099,5.662,1.973,8.907,2.62c3.243,0.65,6.461,0.973,9.656,0.973c2.293,0,4.488-0.249,6.585-0.748
			c2.096-0.499,3.918-1.247,5.465-2.245c1.548-0.998,2.795-2.22,3.742-3.666c0.947-1.447,1.421-3.069,1.421-4.868
			c0-1.996-0.375-3.642-1.123-4.939c-0.749-1.295-1.746-2.394-2.994-3.293c-1.247-0.897-2.693-1.671-4.339-2.321
			c-1.648-0.647-3.42-1.27-5.314-1.869l-5.239-1.948c-6.388-2.394-11.029-5.09-13.922-8.083c-2.895-2.994-4.342-7.036-4.342-12.126
			c0-6.786,2.42-12.176,7.26-16.167c4.839-3.991,11.949-5.987,21.333-5.987c3.891,0,7.708,0.375,11.45,1.124
			c3.742,0.748,7.011,1.62,9.807,2.618c-0.201,1.995-0.574,3.991-1.123,5.987c-0.55,1.995-1.225,3.843-2.021,5.538
			c-2.197-0.796-4.814-1.569-7.859-2.318c-3.043-0.748-6.312-1.124-9.805-1.124c-3.693,0-6.962,0.65-9.805,1.948
			c-2.845,1.298-4.266,3.593-4.266,6.884c0,1.698,0.348,3.146,1.046,4.342c0.698,1.199,1.646,2.223,2.845,3.069
			c1.197,0.85,2.57,1.572,4.117,2.172s3.218,1.197,5.015,1.795l6.587,2.245c2.394,0.799,4.664,1.746,6.811,2.845
			c2.145,1.099,3.992,2.469,5.539,4.117c1.547,1.647,2.795,3.644,3.742,5.987c0.947,2.346,1.424,5.165,1.424,8.459
			c0,3.693-0.749,7.061-2.246,10.104c-1.496,3.044-3.618,5.639-6.362,7.783c-2.746,2.147-6.064,3.818-9.955,5.015
			c-3.894,1.197-8.185,1.797-12.874,1.797c-4.79,0-8.98-0.325-12.574-0.973c-3.594-0.65-6.938-1.522-10.029-2.621
			c0.197-1.995,0.621-4.017,1.271-6.062C216.376,101.87,217.099,99.85,217.897,97.854z"/>
		<path fill="#231F20" stroke="#231F20" stroke-width="2" stroke-miterlimit="10" d="M290.202,46.807h-11.675l-0.6-2.097
			l25.748-28.741h1.196v19.013h19.461c0.398,1.698,0.6,3.593,0.6,5.688c0,1.099-0.05,2.146-0.151,3.145
			c-0.101,0.998-0.249,1.995-0.448,2.993h-19.461v35.028c0,4.193,0.174,7.537,0.524,10.031c0.348,2.495,0.947,4.417,1.797,5.763
			c0.847,1.349,1.995,2.248,3.441,2.696c1.447,0.449,3.269,0.673,5.466,0.673c1.696,0,3.294-0.123,4.79-0.373
			c1.497-0.249,2.843-0.524,4.042-0.826c0.698,1.998,1.121,4.044,1.272,6.141c0.148,2.097,0.225,3.941,0.225,5.536
			c-1.996,0.499-4.093,0.872-6.287,1.124c-2.197,0.247-4.541,0.373-7.035,0.373c-7.187,0-12.801-1.746-16.843-5.239
			c-4.042-3.492-6.062-9.28-6.062-17.364V46.807z"/>
		<path fill="#231F20" stroke="#231F20" stroke-miterlimit="10" d="M392.147,98.453c0.796,1.396,1.494,3.143,2.094,5.239
			c0.6,2.096,0.95,4.243,1.051,6.438c-5.889,2.293-12.624,3.442-20.209,3.442c-12.775,0-22.408-3.616-28.895-10.853
			c-6.486-7.235-9.729-16.989-9.729-29.266c0-5.689,0.797-10.979,2.395-15.87c1.597-4.889,3.966-9.129,7.11-12.723
			c3.145-3.593,7.061-6.436,11.753-8.532c4.691-2.097,10.129-3.145,16.318-3.145c4.19,0,7.882,0.25,11.077,0.748
			c3.192,0.499,6.236,1.298,9.132,2.395c0,1.698-0.227,3.669-0.676,5.914c-0.448,2.247-1.073,4.218-1.869,5.914
			c-4.892-1.696-10.48-2.545-16.768-2.545c-7.686,0-13.423,2.545-17.215,7.635c-3.793,5.09-5.688,11.825-5.688,20.209
			c0,9.58,2.145,16.593,6.436,21.033c4.291,4.439,10.18,6.66,17.666,6.66c2.994,0,5.764-0.199,8.309-0.598
			S389.552,99.451,392.147,98.453z"/>
		<path fill="#231F20" stroke="#231F20" stroke-miterlimit="10" d="M411.611,34.981c1.098-0.199,2.346-0.348,3.741-0.449
			c1.396-0.101,2.596-0.15,3.594-0.15c1.099,0,2.346,0.05,3.742,0.15c1.396,0.102,2.646,0.25,3.744,0.449v42.063
			c0,4.792,0.448,8.759,1.346,11.903s2.245,5.614,4.042,7.408c1.796,1.797,3.991,3.044,6.586,3.742
			c2.596,0.7,5.59,1.049,8.983,1.049c5.09,0,9.43-0.548,13.022-1.646v-64.52c1.099-0.199,2.321-0.348,3.669-0.449
			c1.346-0.101,2.568-0.15,3.667-0.15c1.098,0,2.32,0.05,3.668,0.15c1.346,0.102,2.568,0.25,3.667,0.449v74.397
			c-3.493,1.001-7.66,1.95-12.501,2.848c-4.841,0.895-9.855,1.346-15.043,1.346c-4.892,0-9.508-0.426-13.847-1.272
			c-4.342-0.847-8.159-2.568-11.453-5.163c-3.293-2.596-5.889-6.237-7.783-10.929c-1.897-4.691-2.845-10.878-2.845-18.563V34.981z"
			/>
		<path fill="#231F20" stroke="#231F20" stroke-miterlimit="10" d="M501.282,46.807h-11.675l-0.6-2.097l25.748-28.741h1.197v19.013
			h19.46c0.398,1.698,0.6,3.593,0.6,5.688c0,1.099-0.05,2.146-0.15,3.145s-0.25,1.995-0.449,2.993h-19.46v35.028
			c0,4.193,0.174,7.537,0.523,10.031c0.348,2.495,0.947,4.417,1.797,5.763c0.847,1.349,1.996,2.248,3.442,2.696
			c1.446,0.449,3.269,0.673,5.465,0.673c1.696,0,3.294-0.123,4.79-0.373c1.497-0.249,2.843-0.524,4.042-0.826
			c0.698,1.998,1.122,4.044,1.272,6.141c0.149,2.097,0.225,3.941,0.225,5.536c-1.996,0.499-4.092,0.872-6.287,1.124
			c-2.197,0.247-4.541,0.373-7.035,0.373c-7.187,0-12.801-1.746-16.843-5.239c-4.042-3.492-6.062-9.28-6.062-17.364V46.807z"/>
	</g>
</g>
</svg>
