<?xml version="1.0" encoding="UTF-8"?>
<svg id="Layer_1" data-name="Layer 1" xmlns="http://www.w3.org/2000/svg" xmlns:xlink="http://www.w3.org/1999/xlink" viewBox="0 0 742.8 104.66">
  <defs>
    <style>
      .cls-1 {
        fill: #fff;
      }

      .cls-2 {
        fill: url(#linear-gradient);
      }
    </style>
    <linearGradient id="linear-gradient" x1="31.47" y1="17.23" x2="127.73" y2="102.88" gradientUnits="userSpaceOnUse">
      <stop offset=".05" stop-color="#a7258c"/>
      <stop offset=".2" stop-color="#cd559f"/>
      <stop offset=".39" stop-color="#e9b0d0"/>
      <stop offset=".52" stop-color="#e18fbc"/>
      <stop offset=".64" stop-color="#d773ab"/>
      <stop offset=".75" stop-color="#c94597"/>
      <stop offset=".84" stop-color="#c83894"/>
      <stop offset=".94" stop-color="#c13e96"/>
      <stop offset="1" stop-color="#c13e96"/>
    </linearGradient>
  </defs>
  <path class="cls-2" d="M163.27,30.01c-2.8-6.35-6.4-11.63-10.81-15.85-4.41-4.22-9.32-7.37-14.72-9.46-.69-.26-1.37-.46-2.05-.69-1.77-1.27-6.33-2.58-13.66-3.9-.44-.07-.87-.11-1.32-.11H8.19C3.67,0,0,3.94,0,8.78V95.88c0,4.84,3.67,8.78,8.19,8.78H120.41c.57,0,1.12-.1,1.91-.25,8.91-1.66,14.37-3.89,14.43-3.92,.85-.23,1.64-.66,2.38-1.17,4.85-2.07,9.31-4.99,13.33-8.84,4.41-4.22,8.02-9.5,10.81-15.85,2.8-6.35,4.2-13.79,4.2-22.31s-1.4-15.96-4.2-22.31ZM59.5,91.66l-16.52-20.72-.04,.04-.07-.09,13.76-15.5,37.56,46.09h-26.86l-7.83-9.82ZM5.03,100.29V4.37c.88-.73,1.97-1.19,3.17-1.19H25.74V43.48L62.29,3.18h27.19c-1.35,.97-2.93,2.25-2.93,2.25l19.81,23.29c1.93-1.49,3.96-2.77,6.19-3.62,3.11-1.17,6.16-1.77,9.15-1.77s6.02,.59,9.09,1.77c3.07,1.18,5.86,2.98,8.4,5.38,2.53,2.41,4.58,5.42,6.16,9.05,1.57,3.63,2.36,7.89,2.36,12.79s-.79,9.14-2.36,12.72c-1.57,3.58-3.62,6.57-6.16,8.98-2.53,2.4-5.33,4.19-8.4,5.37-3.07,1.18-6.1,1.77-9.09,1.77s-6.04-.59-9.15-1.77c-3.11-1.18-5.92-2.97-8.45-5.37-2.53-2.41-8.56-7.65-8.56-7.65l-12.25-12.12s9.23-9.37,12.11-12.62l.09-.1-20.68-22.82-24.94,28.15h0s-13.82,15.48-13.82,15.48h0s0,0,0,0l-10.3,11.74v27.42H8.19c-1.2,0-2.29-.45-3.17-1.19Z"/>
  <g>
    <path class="cls-1" d="M184.99,18.7h36.28c3.64,0,6.85,.62,9.63,1.87,2.78,1.24,5.08,2.89,6.89,4.93,1.82,2.04,3.2,4.38,4.12,6.99,.92,2.62,1.39,5.3,1.39,8.05s-.46,5.43-1.39,8.05c-.92,2.62-2.3,4.95-4.12,7-1.82,2.04-4.11,3.69-6.89,4.93-2.78,1.25-5.98,1.87-9.63,1.87h-20.1v23.38h-16.18V18.7Zm16.18,30.18h18.38c2.68,0,4.69-.86,6.03-2.59,1.34-1.73,2.01-3.64,2.01-5.75,0-1.02-.16-2.03-.48-3.02-.32-.99-.81-1.88-1.48-2.68-.67-.8-1.52-1.44-2.54-1.92s-2.2-.72-3.54-.72h-18.38v16.67Z"/>
    <path class="cls-1" d="M325.26,52.23c0,6-1.17,11.24-3.5,15.71-2.33,4.47-5.33,8.19-9,11.16-3.67,2.97-7.76,5.19-12.25,6.66-4.5,1.47-8.95,2.2-13.36,2.2s-8.87-.73-13.4-2.2c-4.53-1.47-8.64-3.69-12.3-6.66-3.67-2.97-6.67-6.69-9-11.16-2.33-4.47-3.49-9.71-3.49-15.71s1.16-11.24,3.49-15.71c2.33-4.47,5.33-8.19,9-11.16,3.67-2.97,7.77-5.19,12.3-6.66s9-2.2,13.4-2.2,8.86,.73,13.36,2.2,8.58,3.69,12.25,6.66c3.67,2.97,6.67,6.69,9,11.16,2.33,4.47,3.5,9.71,3.5,15.71Zm-16.47,0c0-3.45-.66-6.45-1.96-9-1.31-2.55-3.02-4.68-5.13-6.37-2.11-1.69-4.43-2.95-6.99-3.78-2.56-.83-5.08-1.24-7.57-1.24s-5.03,.42-7.61,1.24c-2.59,.83-4.93,2.09-7.03,3.78-2.11,1.7-3.82,3.82-5.12,6.37-1.31,2.55-1.96,5.56-1.96,9s.65,6.44,1.96,8.96c1.3,2.52,3.01,4.63,5.12,6.32s4.45,2.95,7.03,3.78,5.13,1.24,7.61,1.24,5.01-.41,7.57-1.24c2.55-.83,4.88-2.09,6.99-3.78s3.82-3.8,5.13-6.32c1.3-2.52,1.96-5.51,1.96-8.96Z"/>
    <path class="cls-1" d="M417.55,18.7h16.18V58.37c0,2.43,.51,4.55,1.53,6.37,1.02,1.82,2.36,3.34,4.02,4.55,1.66,1.21,3.54,2.12,5.65,2.73,2.11,.61,4.28,.91,6.51,.91s4.41-.3,6.51-.91c2.11-.61,3.99-1.52,5.65-2.73,1.66-1.21,3-2.73,4.02-4.55,1.02-1.82,1.53-3.94,1.53-6.37V18.7h16.18V58.37c0,4.98-.97,9.33-2.92,13.03s-4.5,6.8-7.66,9.29c-3.16,2.49-6.78,4.36-10.87,5.6-4.09,1.25-8.23,1.87-12.45,1.87s-8.36-.62-12.45-1.87c-4.09-1.24-7.71-3.11-10.87-5.6-3.16-2.49-5.71-5.59-7.66-9.29-1.95-3.7-2.92-8.05-2.92-13.03V18.7Z"/>
    <path class="cls-1" d="M669.36,18.7h16.18l41.17,46.76V18.7h16.08V85.77h-16.08l-41.17-46.76v46.76h-16.18V18.7Z"/>
    <g>
      <polygon class="cls-1" points="378.21 54.29 367.46 64.53 387.49 85.77 408.56 85.77 378.21 54.29"/>
      <polygon class="cls-1" points="362.12 58.87 362.12 58.87 372.92 48.64 372.92 48.64 404.25 18.75 383.76 18.75 354.08 46.42 354.08 18.75 337.89 18.75 337.89 85.77 354.08 85.77 354.08 66.62 362.12 58.87 362.12 58.87"/>
    </g>
    <g>
      <polygon class="cls-1" points="514.93 18.75 498.74 18.75 498.74 85.77 514.93 85.77 514.93 46.84 514.93 45.94 514.93 18.75"/>
      <polygon class="cls-1" points="566.82 18.75 540.87 63.94 522.11 31.26 522.34 58.85 537.81 85.77 543.84 85.77 566.82 45.94 566.82 85.77 583 85.77 583 18.75 566.82 18.75"/>
    </g>
    <g>
      <polygon class="cls-1" points="613.45 72.27 613.45 58.96 613.45 45.56 613.45 32.25 657.01 32.25 657.01 18.75 597.27 18.75 597.27 85.77 657.68 85.77 657.68 72.27 613.45 72.27"/>
      <rect class="cls-1" x="618.86" y="45.56" width="31.74" height="13.41"/>
    </g>
  </g>
</svg>