<?xml version="1.0" encoding="UTF-8"?>
<svg id="Layer_1" data-name="Layer 1" xmlns="http://www.w3.org/2000/svg" viewBox="0 0 748.78 104.66">
  <defs>
    <style>
      .cls-1 {
        fill: #fff;
      }
    </style>
  </defs>
  <path class="cls-1" d="M163.27,30.01c-2.8-6.35-6.4-11.63-10.81-15.85-4.41-4.22-9.32-7.37-14.72-9.46-.69-.26-1.37-.46-2.05-.69-1.77-1.27-6.33-2.58-13.66-3.9-.44-.07-.87-.11-1.32-.11H8.19C3.67,0,0,3.94,0,8.78V95.88c0,4.84,3.67,8.78,8.19,8.78H120.41c.57,0,1.12-.1,1.91-.25,8.91-1.66,14.37-3.89,14.43-3.92,.85-.23,1.64-.66,2.38-1.17,4.85-2.07,9.31-4.99,13.33-8.84,4.41-4.22,8.02-9.5,10.81-15.85,2.8-6.35,4.2-13.79,4.2-22.31s-1.4-15.96-4.2-22.31ZM59.5,91.66l-16.52-20.72-.04,.04-.07-.09,13.76-15.5,37.56,46.09h-26.86l-7.83-9.82ZM5.03,100.29V4.37c.88-.73,1.97-1.19,3.17-1.19H25.74V43.48L62.29,3.18h27.19c-1.35,.97-2.93,2.25-2.93,2.25l19.81,23.29c1.93-1.49,3.96-2.77,6.19-3.62,3.11-1.17,6.16-1.77,9.15-1.77s6.02,.59,9.09,1.77c3.07,1.18,5.86,2.98,8.4,5.38,2.53,2.41,4.58,5.42,6.16,9.05,1.57,3.63,2.36,7.89,2.36,12.79s-.79,9.14-2.36,12.72c-1.57,3.58-3.62,6.57-6.16,8.98-2.53,2.4-5.33,4.19-8.4,5.37-3.07,1.18-6.1,1.77-9.09,1.77s-6.04-.59-9.15-1.77c-3.11-1.18-5.92-2.97-8.45-5.37-2.53-2.41-8.56-7.65-8.56-7.65l-12.25-12.12s9.23-9.37,12.11-12.62l.09-.1-20.68-22.82-24.94,28.15h0s-13.82,15.48-13.82,15.48h0s0,0,0,0l-10.3,11.74v27.42H8.19c-1.2,0-2.29-.45-3.17-1.19Z"/>
  <g>
    <g>
      <polygon class="cls-1" points="380.28 54.31 369.42 64.66 389.66 86.13 410.95 86.13 380.28 54.31"/>
      <polygon class="cls-1" points="364.02 58.94 364.02 58.94 374.93 48.6 374.94 48.6 406.6 18.39 385.89 18.39 355.89 46.36 355.89 18.39 339.53 18.39 339.53 86.13 355.89 86.13 355.89 66.77 364.02 58.94 364.02 58.94"/>
    </g>
    <g>
      <polygon class="cls-1" points="732.52 18.39 732.52 65.61 703.66 32.86 690.91 38.91 732.52 86.13 748.78 86.13 748.78 18.39 732.52 18.39"/>
      <polygon class="cls-1" points="690.91 38.91 695.39 23.47 690.91 18.39 674.56 18.39 674.56 86.13 690.91 86.13 690.91 38.91 690.91 38.91"/>
    </g>
    <path class="cls-1" d="M321.35,36.34c-2.23-4.51-5.1-8.27-8.61-11.27-3.51-3-7.42-5.24-11.72-6.73s-8.56-2.22-12.78-2.22-8.49,.74-12.82,2.22c-3.78,1.29-7.19,3.27-10.34,5.72l10.83,11.44c1.57-1.09,3.23-2.03,5.05-2.65,2.47-.83,4.9-1.26,7.28-1.26s4.79,.42,7.24,1.26c2.44,.84,4.67,2.12,6.68,3.82,2.01,1.71,3.65,3.86,4.9,6.44,1.25,2.58,1.88,5.61,1.88,9.09s-.63,6.5-1.88,9.05c-1.25,2.55-2.89,4.68-4.9,6.39-2.01,1.71-4.24,2.98-6.68,3.82-2.44,.84-4.86,1.26-7.24,1.26s-4.81-.42-7.28-1.26c-2.47-.84-4.72-2.11-6.73-3.82-2.01-1.71-3.65-3.84-4.9-6.39-1.25-2.55-1.88-5.56-1.88-9.05,0-2.34,.39-4.4,.95-6.34l-11.65-12.31c-.56,.94-1.21,1.77-1.71,2.78-2.23,4.52-3.34,9.81-3.34,15.87s1.11,11.36,3.34,15.87c2.23,4.51,5.1,8.27,8.61,11.27,3.51,3,7.43,5.24,11.77,6.73,4.33,1.48,8.61,2.22,12.82,2.22s8.47-.74,12.78-2.22c4.3-1.48,8.21-3.72,11.72-6.73,3.51-3,6.38-6.76,8.61-11.27,2.23-4.51,3.34-9.81,3.34-15.87s-1.12-11.35-3.34-15.87Z"/>
    <path class="cls-1" d="M242.52,32.32c-.93-2.64-2.32-5-4.16-7.06s-4.16-3.73-6.97-4.98c-2.8-1.26-6.05-1.89-9.72-1.89h-36.68V86.13h16.35V32.03h18.58c1.35,0,2.55,.24,3.58,.73,1.03,.48,1.88,1.13,2.56,1.93,.68,.81,1.18,1.71,1.5,2.71,.32,1,.48,2.02,.48,3.05,0,2.13-.68,4.06-2.03,5.81-1.35,1.74-3.39,2.61-6.09,2.61h-7.23l-11.36,13.64h20.32c3.67,0,6.92-.63,9.72-1.89,2.81-1.26,5.13-2.92,6.97-4.98,1.84-2.07,3.22-4.42,4.16-7.07,.94-2.64,1.41-5.35,1.41-8.13s-.47-5.48-1.41-8.13Z"/>
    <g>
      <path class="cls-1" d="M472.21,18.39V58.45c0,2.45-.52,4.59-1.55,6.43-1.03,1.84-2.39,3.37-4.06,4.6-1.68,1.23-3.59,2.15-5.71,2.76-2.13,.61-4.32,.92-6.58,.92s-4.45-.31-6.58-.92c-2.13-.61-4.03-1.53-5.71-2.76-1.68-1.23-3.04-2.76-4.06-4.6-1.03-1.84-1.55-3.98-1.55-6.43v-1.15l-16.35-7.31v8.46c0,5.03,.98,9.42,2.95,13.16s4.55,6.87,7.74,9.39c3.19,2.52,6.85,4.4,10.98,5.66,4.12,1.26,8.32,1.89,12.58,1.89s8.45-.63,12.58-1.89c4.12-1.26,7.79-3.14,10.98-5.66,3.19-2.52,5.77-5.65,7.74-9.39s2.95-8.13,2.95-13.16V18.39h-16.35Z"/>
      <polygon class="cls-1" points="436.4 18.39 420.05 18.39 420.05 49.99 436.4 43.46 436.4 18.39"/>
    </g>
    <g>
      <polygon class="cls-1" points="518.46 18.39 502.11 18.39 502.11 86.13 518.46 86.13 518.46 46.78 518.46 45.87 518.46 18.39"/>
      <polygon class="cls-1" points="570.91 18.39 544.69 64.06 525.73 31.04 525.96 58.92 541.6 86.13 547.69 86.13 570.91 45.87 570.91 86.13 587.27 86.13 587.27 18.39 570.91 18.39"/>
    </g>
    <g>
      <polygon class="cls-1" points="618.04 72.48 618.04 59.03 618.04 45.48 618.04 32.03 662.07 32.03 662.07 18.39 601.69 18.39 601.69 86.13 662.75 86.13 662.75 72.48 618.04 72.48"/>
      <rect class="cls-1" x="623.51" y="45.48" width="32.08" height="13.55"/>
    </g>
  </g>
</svg>